<?xml version="1.0" encoding="UTF-8"?>
<svg id="Calque_1" data-name="Calque 1" xmlns="http://www.w3.org/2000/svg" width="85.33mm" height="46.54mm" viewBox="0 0 241.88 131.91">
  <defs>
    <style>
      .cls-1 {
        fill: #004899;
      }

      .cls-1, .cls-2, .cls-3, .cls-4, .cls-5 {
        stroke-width: 0px;
      }

      .cls-2 {
        fill: #c9177f;
      }

      .cls-3 {
        fill: #e30613;
      }

      .cls-4 {
        fill: #9b1a81;
      }

      .cls-5 {
        fill: #0e2356;
      }
    </style>
  </defs>
  <g id="grands_triangles" data-name="grands triangles">
    <g>
      <polygon class="cls-4" points="81.47 55.98 77.31 58.04 88.17 60.54 74.43 71.44 69.94 75.01 36.42 101.61 6.45 41.76 17.5 44.3 16.64 41.08 0 37.26 35.69 106.53 74.54 75.09 78.97 71.51 94.47 58.97 81.47 55.98"/>
      <polygon class="cls-4" points="73.38 57.14 77.54 55.08 20.87 42.06 21.73 45.27 73.38 57.14"/>
    </g>
    <g>
      <polygon class="cls-2" points="25.52 74.21 24.58 70.71 20.92 70.66 22.67 74.16 25.52 74.21"/>
      <polygon class="cls-2" points="78.97 71.51 74.54 75.09 88.12 75.34 46.5 124.06 7.91 73.89 18.97 74.09 17.18 70.6 .74 70.36 46.35 129.7 96.15 71.76 78.97 71.51"/>
      <polygon class="cls-2" points="37.27 74.42 37.27 74.42 42.83 74.52 42.82 74.52 69.94 75.01 74.43 71.44 50.98 71.1 45.39 71.02 28.57 70.77 29.51 74.28 37.27 74.42"/>
    </g>
    <rect class="cls-3" x="40.05" y="71.69" width="0" height="5.55" transform="translate(-35.13 113.18) rotate(-88.97)"/>
    <polygon class="cls-1" points="7.96 8.73 16.64 41.08 17.5 44.3 24.58 70.71 25.52 74.21 27.62 82.05 42.82 74.52 37.27 74.42 30.46 77.8 29.51 74.28 28.57 70.77 21.73 45.27 20.87 42.06 13.45 14.36 90.81 48.5 77.54 55.08 73.38 57.14 45.39 71.02 50.98 71.1 77.31 58.04 81.47 55.98 97.29 48.14 7.96 8.73"/>
  </g>
  <path id="_3SR" data-name="3SR" class="cls-5" d="m234.56,32.55c2.08-1.46,3.82-3.39,5.22-5.81,1.4-2.42,2.1-5.46,2.1-9.14s-.8-6.54-2.4-8.8c-1.6-2.26-3.66-4.04-6.18-5.35-2.52-1.3-5.38-2.2-8.58-2.7-3.2-.5-6.44-.75-9.72-.75h-31.81v2.3c1.68,0,3.16.1,4.44.29,1.28.19,2.36.59,3.24,1.21.88.61,1.56,1.55,2.04,2.82.48,1.27.72,2.97.72,5.12v42.99c-2.29-.43-4.61-.81-6.96-1.13-2.8-.38-6.24-.58-10.32-.58-3.76,0-7.28.37-10.56,1.09-3.28.73-6.15,1.87-8.58,3.45-.77.5-1.2.81-1.44,1-.21-.31-.42-.63-.65-.93-2.67-3.25-6.26-5.45-10.9-6.5,3.6-1.51,6.26-3.71,8.12-6.49,1.86-2.67,2.78-5.68,2.78-9.05s-1.04-6.73-2.9-9.86c-1.97-3.13-4.75-5.57-8.35-7.31-3.59-1.85-7.54-2.67-11.83-2.67-6.26,0-11.83,1.74-16,5.22-4.06,3.25-6.61,8-7.89,14.03h10.79c.23-2.55,1.04-6.38,3.94-9.63,2.2-2.44,4.87-4.52,9.39-4.52,4.75,0,7.19,1.74,9.28,4.18,2.55,2.9,3.25,6.96,3.25,10.44,0,4.29-1.74,7.54-4.99,9.63-3.25,2.09-6.61,3.13-10.67,3.13-.35,0-.81,0-1.28-.12v7.54c2.09-.46,3.94-.35,5.45-.35,4.41,0,7.77,1.39,10.67,4.29,2.9,2.78,4.29,6.38,4.29,10.67,0,4.52-1.74,9.97-4.64,13.22-3.36,3.71-6.61,4.99-11.13,4.99-3.83,0-7.42-1.97-9.39-3.48-3.36-2.9-4.99-8.35-5.33-12.29h-10.67c.7,6.26,3.25,11.37,7.77,15.31,4.52,4.06,10.67,6.03,17.51,6.03,7.65,0,14.03-2.32,19.02-6.96,1.07-1,2.01-2.05,2.85-3.15l-.06,1.34c.87.89,1.84,1.75,2.95,2.58,2.8,2.07,6,3.91,9.6,5.52,3.6,1.61,6.98,3.3,10.14,5.06,3.16,1.77,5.84,3.72,8.04,5.87,2.2,2.15,3.3,4.79,3.3,7.94,0,1.99-.42,3.87-1.26,5.63-.84,1.76-2,3.3-3.48,4.6-1.48,1.3-3.3,2.34-5.46,3.11-2.16.77-4.56,1.15-7.2,1.15-3.2,0-5.98-.4-8.34-1.21-2.36-.8-4.32-1.84-5.88-3.1-1.56-1.27-2.76-2.68-3.6-4.26-.84-1.57-1.38-3.12-1.62-4.66l-.84-5.75h-2.52l-5.43,17.86c5.31,2.61,18.15,6.29,27.28,6.29,4.08,0,7.92-.44,11.52-1.32,3.6-.88,6.74-2.2,9.42-3.97,2.68-1.76,4.8-3.98,6.36-6.67,1.56-2.68,2.34-5.86,2.34-9.54,0-2.76-.38-5.14-1.14-7.13-.76-1.99-1.84-3.8-3.24-5.41-1.4-1.61-3.06-3.09-4.98-4.43-1.92-1.34-4.08-2.66-6.48-3.97-2.64-1.46-5.4-2.82-8.28-4.08-2.88-1.26-5.54-2.6-7.98-4.02-2.44-1.42-4.46-3.03-6.06-4.83-1.6-1.8-2.4-3.97-2.4-6.5,0-1.91.42-3.64,1.26-5.18.84-1.53,1.94-2.86,3.3-3.97,1.36-1.11,2.96-1.96,4.8-2.53,1.84-.58,3.76-.86,5.76-.86,3.2,0,5.92.4,8.16,1.21,2.24.81,4.1,1.84,5.58,3.11,1.48,1.26,2.62,2.68,3.42,4.25.8,1.57,1.32,3.12,1.56,4.66l.84,5.86h10.68v-38.87h4.92l18.45,38.87h14.19c-17.21-27.04-21.01-39.68-21.01-39.68,2.16-.15,4.46-.55,6.9-1.21,2.44-.65,4.7-1.71,6.79-3.16Zm-11.88-1.72c-2.4,1.07-5.18,1.75-8.34,2.01-3.16.27-6.5.4-10.02.4V12.08c0-1.53.06-2.8.18-3.8.12-1,.46-1.78,1.02-2.36.56-.57,1.36-.96,2.4-1.15,1.04-.19,2.44-.29,4.2-.29,2.4,0,4.72.23,6.96.69,2.24.46,4.2,1.21,5.88,2.24,1.68,1.04,3.04,2.38,4.08,4.03,1.04,1.65,1.56,3.7,1.56,6.15,0,3.6-.72,6.44-2.16,8.51-1.44,2.07-3.36,3.64-5.76,4.72Z"/>
</svg>